<?xml version="1.0" encoding="UTF-8"?>
<svg xmlns="http://www.w3.org/2000/svg" xmlns:xlink="http://www.w3.org/1999/xlink" width="32.61pt" height="36.02pt" viewBox="0 0 32.61 36.02" version="1.1">
<defs>
<clipPath id="clip1">
  <path d="M 15 6 L 32.609375 6 L 32.609375 36.019531 L 15 36.019531 Z M 15 6 "/>
</clipPath>
<clipPath id="clip2">
  <path d="M 0 0 L 32.609375 0 L 32.609375 16 L 0 16 Z M 0 0 "/>
</clipPath>
<clipPath id="clip3">
  <path d="M 0 6 L 18 6 L 18 36.019531 L 0 36.019531 Z M 0 6 "/>
</clipPath>
</defs>
<g id="surface1">
<path style=" stroke:none;fill-rule:nonzero;fill:rgb(69.921875%,0%,0%);fill-opacity:1;" d="M 16.308594 35.019531 L 31.613281 28.21875 L 31.613281 7.808594 L 16.308594 14.609375 L 16.308594 35.019531 "/>
<g clip-path="url(#clip1)" clip-rule="nonzero">
<path style="fill:none;stroke-width:20;stroke-linecap:round;stroke-linejoin:round;stroke:rgb(0%,0%,0%);stroke-opacity:1;stroke-miterlimit:10;" d="M 163.085938 10.004688 L 316.132812 78.0125 L 316.132812 282.114063 L 163.085938 214.10625 Z M 163.085938 10.004688 " transform="matrix(0.1,0,0,-0.1,0,36.02)"/>
</g>
<path style=" stroke:none;fill-rule:nonzero;fill:rgb(78.90625%,30.004883%,30.004883%);fill-opacity:1;" d="M 19.980469 25.386719 C 18.574219 26.585938 19 30.476562 20.46875 29.902344 C 22.183594 29.140625 23.898438 28.542969 25.550781 28.460938 C 27.328125 28.082031 28.183594 23.699219 26.53125 23.128906 C 25.429688 22.558594 25.0625 19.699219 23.839844 20.082031 C 22.550781 20.570312 21.265625 24.324219 19.980469 25.386719 "/>
<path style=" stroke:none;fill-rule:nonzero;fill:rgb(78.90625%,30.004883%,30.004883%);fill-opacity:1;" d="M 28.921875 15.863281 C 27.390625 17.03125 26.042969 20.734375 27.265625 21.902344 C 28.980469 21.714844 30.449219 17.957031 29.960938 16.132812 C 29.839844 15.617188 29.347656 15.589844 28.921875 15.863281 "/>
<path style=" stroke:none;fill-rule:nonzero;fill:rgb(78.90625%,30.004883%,30.004883%);fill-opacity:1;" d="M 18.695312 18.773438 C 17.164062 20.515625 17.960938 23.507812 19.183594 24.027344 C 21.023438 24.351562 21.265625 20.242188 20.347656 19.34375 C 19.980469 18.773438 19.367188 18.230469 18.695312 18.773438 "/>
<path style=" stroke:none;fill-rule:nonzero;fill:rgb(78.90625%,30.004883%,30.004883%);fill-opacity:1;" d="M 26.289062 13.195312 C 24.695312 14.472656 23.53125 18.992188 25.308594 19.34375 C 27.082031 18.394531 28.125 14.421875 27.023438 13.113281 C 26.839844 12.949219 26.53125 13.085938 26.289062 13.195312 "/>
<path style=" stroke:none;fill-rule:nonzero;fill:rgb(78.90625%,30.004883%,30.004883%);fill-opacity:1;" d="M 22.183594 14.449219 C 20.777344 15.890625 20.839844 18.554688 21.449219 19.753906 C 22.246094 21.523438 24.023438 18.855469 23.777344 17.167969 C 23.839844 15.835938 23.46875 13.792969 22.183594 14.449219 "/>
<path style=" stroke:none;fill-rule:nonzero;fill:rgb(100%,30.004883%,30.004883%);fill-opacity:1;" d="M 31.613281 7.808594 L 16.308594 1.003906 L 1 7.808594 L 16.308594 14.609375 L 31.613281 7.808594 "/>
<g clip-path="url(#clip2)" clip-rule="nonzero">
<path style="fill:none;stroke-width:20;stroke-linecap:round;stroke-linejoin:round;stroke:rgb(0%,0%,0%);stroke-opacity:1;stroke-miterlimit:10;" d="M 316.132812 282.114063 L 163.085938 350.160938 L 10 282.114063 L 163.085938 214.10625 Z M 316.132812 282.114063 " transform="matrix(0.1,0,0,-0.1,0,36.02)"/>
</g>
<path style=" stroke:none;fill-rule:nonzero;fill:rgb(100%,65.039062%,65.039062%);fill-opacity:1;" d="M 10.671875 6.773438 C 8.835938 6.339844 6.203125 7.890625 7.613281 8.570312 C 9.328125 9.332031 10.917969 10.148438 12.082031 11.101562 C 13.550781 12.027344 17.410156 11.074219 16.734375 9.902344 C 16.429688 9.058594 18.328125 7.890625 17.226562 7.289062 C 16 6.691406 12.328125 7.179688 10.671875 6.773438 "/>
<path style=" stroke:none;fill-rule:nonzero;fill:rgb(100%,65.039062%,65.039062%);fill-opacity:1;" d="M 23.777344 8.894531 C 21.878906 8.378906 18.207031 8.8125 18.144531 9.929688 C 19.429688 10.882812 23.226562 10.5 24.265625 9.605469 C 24.574219 9.359375 24.265625 9.058594 23.777344 8.894531 "/>
<path style=" stroke:none;fill-rule:nonzero;fill:rgb(100%,65.039062%,65.039062%);fill-opacity:1;" d="M 14.777344 3.808594 C 12.449219 3.480469 10.734375 4.949219 11.164062 5.847656 C 12.144531 7.046875 15.390625 5.820312 15.449219 4.976562 C 15.632812 4.570312 15.632812 4.023438 14.777344 3.808594 "/>
<path style=" stroke:none;fill-rule:nonzero;fill:rgb(100%,65.039062%,65.039062%);fill-opacity:1;" d="M 24.023438 6.445312 C 22 5.929688 17.839844 6.746094 18.757812 7.917969 C 20.65625 8.652344 24.328125 7.945312 24.574219 6.855469 C 24.574219 6.691406 24.265625 6.554688 24.023438 6.445312 "/>
<path style=" stroke:none;fill-rule:nonzero;fill:rgb(100%,65.039062%,65.039062%);fill-opacity:1;" d="M 20.347656 4.433594 C 18.328125 4.078125 16.367188 5.003906 15.878906 5.765625 C 15.082031 6.828125 18.265625 6.992188 19.367188 6.285156 C 20.410156 5.875 21.695312 4.976562 20.347656 4.433594 "/>
<path style=" stroke:none;fill-rule:nonzero;fill:rgb(100%,0%,0%);fill-opacity:1;" d="M 1 7.808594 L 1 28.21875 L 16.308594 35.019531 L 16.308594 14.609375 L 1 7.808594 "/>
<g clip-path="url(#clip3)" clip-rule="nonzero">
<path style="fill:none;stroke-width:20;stroke-linecap:round;stroke-linejoin:round;stroke:rgb(0%,0%,0%);stroke-opacity:1;stroke-miterlimit:10;" d="M 10 282.114063 L 10 78.0125 L 163.085938 10.004688 L 163.085938 214.10625 Z M 10 282.114063 " transform="matrix(0.1,0,0,-0.1,0,36.02)"/>
</g>
<path style=" stroke:none;fill-rule:nonzero;fill:rgb(100%,39.988708%,39.988708%);fill-opacity:1;" d="M 4.675781 21.847656 C 3.265625 21.792969 3.695312 26.066406 5.164062 26.800781 C 6.878906 27.5625 8.59375 28.488281 10.246094 29.875 C 12.019531 31.074219 12.878906 27.453125 11.226562 25.414062 C 10.121094 23.863281 9.753906 20.679688 8.53125 19.972656 C 7.246094 19.320312 5.960938 21.929688 4.675781 21.847656 "/>
<path style=" stroke:none;fill-rule:nonzero;fill:rgb(100%,39.988708%,39.988708%);fill-opacity:1;" d="M 13.613281 20.269531 C 12.082031 20.082031 10.734375 22.582031 11.960938 24.84375 C 13.675781 26.175781 15.144531 23.726562 14.652344 21.46875 C 14.53125 20.84375 14.042969 20.378906 13.613281 20.269531 "/>
<path style=" stroke:none;fill-rule:nonzero;fill:rgb(100%,39.988708%,39.988708%);fill-opacity:1;" d="M 3.386719 14.09375 C 1.855469 14.472656 2.652344 18.175781 3.878906 19.78125 C 5.714844 21.742188 5.960938 17.847656 5.042969 16.132812 C 4.675781 15.238281 4.0625 14.148438 3.386719 14.09375 "/>
<path style=" stroke:none;fill-rule:nonzero;fill:rgb(100%,39.988708%,39.988708%);fill-opacity:1;" d="M 10.980469 15.265625 C 9.386719 15.128906 8.226562 18.609375 10 20.542969 C 11.777344 21.167969 12.816406 18.121094 11.714844 15.835938 C 11.53125 15.507812 11.226562 15.371094 10.980469 15.265625 "/>
<path style=" stroke:none;fill-rule:nonzero;fill:rgb(100%,39.988708%,39.988708%);fill-opacity:1;" d="M 6.878906 12.867188 C 5.46875 13.058594 5.53125 15.78125 6.144531 17.523438 C 6.9375 20 8.714844 18.910156 8.46875 17.003906 C 8.53125 15.726562 8.164062 13.359375 6.878906 12.867188 "/>
</g>
</svg>
