<?xml version="1.0" encoding="UTF-8"?>
<svg xmlns="http://www.w3.org/2000/svg" xmlns:xlink="http://www.w3.org/1999/xlink" width="32.61pt" height="36.02pt" viewBox="0 0 32.61 36.02" version="1.1">
<defs>
<clipPath id="clip1">
  <path d="M 15 6 L 32.609375 6 L 32.609375 36.019531 L 15 36.019531 Z M 15 6 "/>
</clipPath>
<clipPath id="clip2">
  <path d="M 0 0 L 32.609375 0 L 32.609375 16 L 0 16 Z M 0 0 "/>
</clipPath>
<clipPath id="clip3">
  <path d="M 0 6 L 18 6 L 18 36.019531 L 0 36.019531 Z M 0 6 "/>
</clipPath>
</defs>
<g id="surface1">
<path style=" stroke:none;fill-rule:nonzero;fill:rgb(0%,0%,69.921875%);fill-opacity:1;" d="M 16.308594 35.019531 L 31.613281 28.21875 L 31.613281 7.808594 L 16.308594 14.609375 L 16.308594 35.019531 "/>
<g clip-path="url(#clip1)" clip-rule="nonzero">
<path style="fill:none;stroke-width:20;stroke-linecap:round;stroke-linejoin:round;stroke:rgb(0%,0%,0%);stroke-opacity:1;stroke-miterlimit:10;" d="M 163.085938 10.004688 L 316.132812 78.0125 L 316.132812 282.114063 L 163.085938 214.10625 Z M 163.085938 10.004688 " transform="matrix(0.1,0,0,-0.1,0,36.02)"/>
</g>
<path style=" stroke:none;fill-rule:nonzero;fill:rgb(30.004883%,30.004883%,78.90625%);fill-opacity:1;" d="M 22.429688 29.277344 C 22.796875 29.769531 23.347656 29.851562 23.960938 29.578125 C 24.511719 29.332031 25.125 28.734375 25.492188 27.917969 L 22.429688 29.277344 "/>
<path style=" stroke:none;fill-rule:nonzero;fill:rgb(30.004883%,30.004883%,78.90625%);fill-opacity:1;" d="M 22.183594 28.082031 C 21.695312 28.296875 22 28.898438 22.613281 28.625 C 23.46875 28.246094 24.328125 27.945312 25.183594 27.5625 C 25.675781 27.347656 26.226562 26.285156 25.492188 26.613281 C 24.574219 27.019531 23.101562 27.589844 22.183594 28.082031 "/>
<path style=" stroke:none;fill-rule:nonzero;fill:rgb(30.004883%,30.004883%,78.90625%);fill-opacity:1;" d="M 21.941406 26.882812 C 21.082031 27.347656 21.878906 27.808594 22.429688 27.480469 C 23.59375 26.964844 24.390625 26.691406 25.613281 26.066406 C 26.042969 25.875 26.410156 24.898438 26.042969 25.058594 C 24.816406 25.605469 23.042969 26.230469 21.941406 26.882812 "/>
<path style=" stroke:none;fill-rule:nonzero;fill:rgb(30.004883%,30.004883%,78.90625%);fill-opacity:1;" d="M 23.59375 13.414062 C 22 14.285156 20.46875 16.433594 19.859375 18.746094 C 19.308594 20.789062 19.675781 22.582031 20.410156 23.808594 C 20.960938 24.871094 21.328125 26.664062 21.878906 26.421875 C 22.980469 25.929688 25 25.113281 26.042969 24.652344 C 26.53125 24.433594 26.777344 22.53125 27.207031 21.523438 C 27.695312 20 28.367188 18.394531 28.308594 16.949219 C 28.367188 13.660156 25.980469 12.105469 23.59375 13.414062 "/>
<path style=" stroke:none;fill-rule:nonzero;fill:rgb(30.004883%,30.004883%,100%);fill-opacity:1;" d="M 31.613281 7.808594 L 16.308594 1.003906 L 1 7.808594 L 16.308594 14.609375 L 31.613281 7.808594 "/>
<g clip-path="url(#clip2)" clip-rule="nonzero">
<path style="fill:none;stroke-width:20;stroke-linecap:round;stroke-linejoin:round;stroke:rgb(0%,0%,0%);stroke-opacity:1;stroke-miterlimit:10;" d="M 316.132812 282.114063 L 163.085938 350.160938 L 10 282.114063 L 163.085938 214.10625 Z M 316.132812 282.114063 " transform="matrix(0.1,0,0,-0.1,0,36.02)"/>
</g>
<path style=" stroke:none;fill-rule:nonzero;fill:rgb(65.039062%,65.039062%,100%);fill-opacity:1;" d="M 9.386719 9.523438 C 9.265625 9.902344 9.570312 10.257812 10.183594 10.527344 C 10.734375 10.773438 11.59375 10.9375 12.449219 10.882812 L 9.386719 9.523438 "/>
<path style=" stroke:none;fill-rule:nonzero;fill:rgb(65.039062%,65.039062%,100%);fill-opacity:1;" d="M 10.121094 8.976562 C 9.632812 8.761719 9.386719 9.140625 10 9.414062 C 10.859375 9.792969 11.652344 10.203125 12.511719 10.582031 C 13 10.800781 14.164062 10.773438 13.429688 10.445312 C 12.511719 10.039062 11.101562 9.359375 10.121094 8.976562 "/>
<path style=" stroke:none;fill-rule:nonzero;fill:rgb(65.039062%,65.039062%,100%);fill-opacity:1;" d="M 10.859375 8.433594 C 9.9375 8.078125 10.121094 8.707031 10.734375 8.921875 C 11.898438 9.441406 12.632812 9.820312 13.917969 10.339844 C 14.347656 10.527344 15.328125 10.421875 14.960938 10.257812 C 13.734375 9.710938 12.082031 8.867188 10.859375 8.433594 "/>
<path style=" stroke:none;fill-rule:nonzero;fill:rgb(65.039062%,65.039062%,100%);fill-opacity:1;" d="M 22.0625 4.921875 C 20.347656 4.269531 17.714844 4.078125 15.574219 4.488281 C 13.675781 4.839844 12.570312 5.65625 12.144531 6.5 C 11.714844 7.179688 10.613281 7.996094 11.164062 8.242188 C 12.265625 8.734375 14.226562 9.65625 15.265625 10.121094 C 15.757812 10.339844 17.347656 9.847656 18.390625 9.765625 C 19.859375 9.550781 21.511719 9.414062 22.550781 8.894531 C 25.0625 7.835938 24.632812 5.902344 22.0625 4.921875 "/>
<path style=" stroke:none;fill-rule:nonzero;fill:rgb(0%,0%,100%);fill-opacity:1;" d="M 1 7.808594 L 1 28.21875 L 16.308594 35.019531 L 16.308594 14.609375 L 1 7.808594 "/>
<g clip-path="url(#clip3)" clip-rule="nonzero">
<path style="fill:none;stroke-width:20;stroke-linecap:round;stroke-linejoin:round;stroke:rgb(0%,0%,0%);stroke-opacity:1;stroke-miterlimit:10;" d="M 10 282.114063 L 10 78.0125 L 163.085938 10.004688 L 163.085938 214.10625 Z M 10 282.114063 " transform="matrix(0.1,0,0,-0.1,0,36.02)"/>
</g>
<path style=" stroke:none;fill-rule:nonzero;fill:rgb(39.988708%,39.988708%,100%);fill-opacity:1;" d="M 7.121094 27.917969 C 7.488281 28.734375 8.042969 29.304688 8.652344 29.578125 C 9.203125 29.824219 9.816406 29.769531 10.183594 29.277344 L 7.121094 27.917969 "/>
<path style=" stroke:none;fill-rule:nonzero;fill:rgb(39.988708%,39.988708%,100%);fill-opacity:1;" d="M 6.878906 26.503906 C 6.386719 26.285156 6.695312 27.15625 7.304688 27.429688 C 8.164062 27.808594 9.019531 28.269531 9.878906 28.652344 C 10.367188 28.871094 10.917969 28.296875 10.183594 27.972656 C 9.265625 27.5625 7.796875 26.828125 6.878906 26.503906 "/>
<path style=" stroke:none;fill-rule:nonzero;fill:rgb(39.988708%,39.988708%,100%);fill-opacity:1;" d="M 6.632812 25.085938 C 5.777344 24.789062 6.570312 25.957031 7.121094 26.121094 C 8.285156 26.636719 9.082031 27.074219 10.304688 27.535156 C 10.734375 27.726562 11.101562 27.074219 10.734375 26.910156 C 9.511719 26.367188 7.734375 25.414062 6.632812 25.085938 "/>
<path style=" stroke:none;fill-rule:nonzero;fill:rgb(39.988708%,39.988708%,100%);fill-opacity:1;" d="M 8.285156 13.085938 C 6.695312 12.542969 5.164062 13.332031 4.550781 15.101562 C 4 16.652344 4.367188 18.773438 5.101562 20.652344 C 5.652344 22.203125 6.019531 24.324219 6.570312 24.570312 C 7.675781 25.058594 9.695312 26.039062 10.734375 26.503906 C 11.226562 26.71875 11.46875 25.03125 11.898438 24.40625 C 12.386719 23.320312 13.0625 22.3125 13 20.816406 C 13.0625 17.578125 10.675781 13.902344 8.285156 13.085938 "/>
</g>
</svg>
