<?xml version="1.0" encoding="UTF-8"?>
<svg xmlns="http://www.w3.org/2000/svg" xmlns:xlink="http://www.w3.org/1999/xlink" width="48.83pt" height="40.95pt" viewBox="0 0 48.83 40.95" version="1.1">
<defs>
<clipPath id="clip1">
  <path d="M 0 9 L 32 9 L 32 40.949219 L 0 40.949219 Z M 0 9 "/>
</clipPath>
<clipPath id="clip2">
  <path d="M 29 12 L 48.828125 12 L 48.828125 32 L 29 32 Z M 29 12 "/>
</clipPath>
</defs>
<g id="surface1">
<g clip-path="url(#clip1)" clip-rule="nonzero">
<path style=" stroke:none;fill-rule:nonzero;fill:rgb(0%,0%,0%);fill-opacity:1;" d="M 31.050781 19.917969 L 29.550781 16.707031 L 26.28125 17.539062 L 25.09375 16.125 L 26.480469 13.046875 L 23.578125 11.011719 L 21.160156 13.371094 L 19.425781 12.738281 L 19.085938 9.378906 L 15.554688 9.070312 L 14.640625 12.320312 L 12.824219 12.640625 L 10.851562 9.898438 L 7.636719 11.398438 L 8.46875 14.671875 L 7.054688 15.855469 L 3.976562 14.46875 L 1.945312 17.371094 L 4.300781 19.789062 L 3.667969 21.527344 L 0.308594 21.863281 L 0 25.394531 L 3.25 26.308594 L 3.570312 28.128906 L 0.828125 30.101562 L 2.328125 33.3125 L 5.601562 32.480469 L 6.789062 33.894531 L 5.398438 36.972656 L 8.304688 39.007812 L 10.722656 36.648438 L 12.457031 37.28125 L 12.792969 40.640625 L 16.324219 40.949219 L 17.242188 37.699219 L 19.058594 37.378906 L 21.03125 40.121094 L 24.242188 38.621094 L 23.410156 35.347656 L 24.824219 34.164062 L 27.902344 35.550781 L 29.9375 32.644531 L 27.578125 30.226562 L 28.210938 28.492188 L 31.570312 28.15625 L 31.878906 24.625 L 28.628906 23.710938 L 28.308594 21.890625 Z M 23.453125 21.507812 C 25.390625 25.65625 23.59375 30.589844 19.445312 32.523438 C 15.292969 34.460938 10.359375 32.664062 8.425781 28.515625 C 6.492188 24.363281 8.285156 19.429688 12.4375 17.496094 C 16.585938 15.558594 21.519531 17.355469 23.453125 21.507812 "/>
</g>
<g clip-path="url(#clip2)" clip-rule="nonzero">
<path style=" stroke:none;fill-rule:nonzero;fill:rgb(0%,0%,0%);fill-opacity:1;" d="M 48.5 19.035156 L 47.300781 16.46875 L 44.796875 17.246094 L 43.832031 16.28125 L 44.609375 13.773438 L 42.042969 12.578125 L 40.621094 14.78125 L 39.261719 14.664062 L 38.246094 12.242188 L 35.511719 12.976562 L 35.839844 15.582031 L 34.71875 16.363281 L 32.386719 15.164062 L 30.765625 17.484375 L 32.691406 19.265625 L 32.335938 20.585938 L 29.777344 21.164062 L 30.023438 23.984375 L 32.644531 24.113281 L 33.222656 25.351562 L 31.632812 27.4375 L 33.636719 29.441406 L 35.726562 27.855469 L 36.964844 28.429688 L 37.089844 31.050781 L 39.910156 31.300781 L 40.492188 28.738281 L 41.8125 28.386719 L 43.59375 30.3125 L 45.914062 28.6875 L 44.710938 26.355469 L 45.496094 25.234375 L 48.097656 25.566406 L 48.832031 22.832031 L 46.414062 21.816406 L 46.292969 20.453125 Z M 43.179688 19.953125 C 44.171875 22.082031 43.25 24.609375 41.121094 25.601562 C 38.996094 26.597656 36.464844 25.675781 35.472656 23.546875 C 34.480469 21.417969 35.402344 18.890625 37.53125 17.898438 C 39.65625 16.902344 42.1875 17.824219 43.179688 19.953125 "/>
</g>
<path style=" stroke:none;fill-rule:nonzero;fill:rgb(0%,0%,0%);fill-opacity:1;" d="M 29.546875 6.996094 L 29.304688 4.226562 L 27.109375 4.234375 L 26.40625 3.230469 L 27.164062 1.171875 L 24.644531 -0.00390625 L 23.554688 1.902344 L 22.332031 2.007812 L 20.929688 0.320312 L 18.652344 1.914062 L 19.757812 3.8125 L 19.238281 4.921875 L 17.074219 5.292969 L 17.316406 8.066406 L 19.511719 8.054688 L 20.214844 9.0625 L 19.457031 11.121094 L 21.976562 12.296875 L 23.066406 10.390625 L 24.289062 10.28125 L 25.691406 11.96875 L 27.96875 10.375 L 26.863281 8.480469 L 27.382812 7.367188 Z M 25.511719 5.953125 C 25.621094 7.167969 24.71875 8.242188 23.503906 8.347656 C 22.285156 8.453125 21.214844 7.554688 21.109375 6.339844 C 21 5.121094 21.902344 4.046875 23.117188 3.941406 C 24.335938 3.835938 25.40625 4.734375 25.511719 5.953125 "/>
<path style=" stroke:none;fill-rule:nonzero;fill:rgb(0%,0%,0%);fill-opacity:1;" d="M 35.347656 8.320312 L 34.898438 7.867188 L 32.484375 9.582031 L 30.859375 9.582031 L 28.449219 7.867188 L 27.996094 8.320312 L 29.707031 10.730469 L 29.707031 12.359375 L 27.996094 14.769531 L 28.449219 15.222656 L 30.859375 13.507812 L 32.484375 13.507812 L 34.898438 15.222656 L 35.347656 14.769531 L 33.636719 12.359375 L 33.636719 10.730469 Z M 32.425781 10.792969 C 32.839844 11.207031 32.839844 11.882812 32.425781 12.296875 C 32.007812 12.710938 31.335938 12.710938 30.921875 12.296875 C 30.507812 11.882812 30.507812 11.207031 30.921875 10.792969 C 31.335938 10.378906 32.007812 10.378906 32.425781 10.792969 "/>
</g>
</svg>
