<?xml version="1.0" encoding="UTF-8"?>
<svg xmlns="http://www.w3.org/2000/svg" xmlns:xlink="http://www.w3.org/1999/xlink" width="32.61pt" height="36.02pt" viewBox="0 0 32.61 36.02" version="1.1">
<defs>
<clipPath id="clip1">
  <path d="M 15 6 L 32.609375 6 L 32.609375 36.019531 L 15 36.019531 Z M 15 6 "/>
</clipPath>
<clipPath id="clip2">
  <path d="M 0 0 L 32.609375 0 L 32.609375 16 L 0 16 Z M 0 0 "/>
</clipPath>
<clipPath id="clip3">
  <path d="M 0 6 L 18 6 L 18 36.019531 L 0 36.019531 Z M 0 6 "/>
</clipPath>
</defs>
<g id="surface1">
<path style=" stroke:none;fill-rule:nonzero;fill:rgb(7.006836%,7.006836%,7.006836%);fill-opacity:1;" d="M 16.308594 35.019531 L 31.613281 28.21875 L 31.613281 7.808594 L 16.308594 14.609375 L 16.308594 35.019531 "/>
<g clip-path="url(#clip1)" clip-rule="nonzero">
<path style="fill:none;stroke-width:20;stroke-linecap:round;stroke-linejoin:round;stroke:rgb(0%,0%,0%);stroke-opacity:1;stroke-miterlimit:10;" d="M 163.085938 10.004688 L 316.132812 78.0125 L 316.132812 282.114063 L 163.085938 214.10625 Z M 163.085938 10.004688 " transform="matrix(0.1,0,0,-0.1,0,36.02)"/>
</g>
<path style=" stroke:none;fill-rule:nonzero;fill:rgb(34.910583%,34.910583%,34.910583%);fill-opacity:1;" d="M 25.492188 20.734375 C 25.492188 19.605469 24.804688 18.996094 23.960938 19.371094 C 23.113281 19.75 22.429688 20.96875 22.429688 22.09375 C 22.429688 23.222656 23.113281 23.832031 23.960938 23.453125 C 24.804688 23.078125 25.492188 21.859375 25.492188 20.734375 "/>
<path style=" stroke:none;fill-rule:nonzero;fill:rgb(34.910583%,34.910583%,34.910583%);fill-opacity:1;" d="M 27.023438 12.980469 C 26.121094 12.6875 25.078125 12.753906 23.960938 13.25 C 22.84375 13.746094 21.800781 14.609375 20.898438 15.703125 L 23.042969 19.699219 C 23.3125 19.371094 23.625 19.113281 23.960938 18.964844 C 24.296875 18.816406 24.609375 18.796875 24.878906 18.882812 L 27.023438 12.980469 "/>
<path style=" stroke:none;fill-rule:nonzero;fill:rgb(34.910583%,34.910583%,34.910583%);fill-opacity:1;" d="M 17.839844 24.136719 C 17.839844 27.15625 19.070312 29.246094 20.898438 29.847656 L 23.042969 23.945312 C 22.492188 23.765625 22.125 23.136719 22.125 22.230469 L 17.839844 24.136719 "/>
<path style=" stroke:none;fill-rule:nonzero;fill:rgb(34.910583%,34.910583%,34.910583%);fill-opacity:1;" d="M 27.023438 27.125 C 28.851562 24.898438 30.082031 21.714844 30.082031 18.691406 L 25.796875 20.597656 C 25.796875 21.503906 25.429688 22.460938 24.878906 23.125 L 27.023438 27.125 "/>
<path style=" stroke:none;fill-rule:nonzero;fill:rgb(37.010193%,37.010193%,37.010193%);fill-opacity:1;" d="M 31.613281 7.808594 L 16.308594 1.003906 L 1 7.808594 L 16.308594 14.609375 L 31.613281 7.808594 "/>
<g clip-path="url(#clip2)" clip-rule="nonzero">
<path style="fill:none;stroke-width:20;stroke-linecap:round;stroke-linejoin:round;stroke:rgb(0%,0%,0%);stroke-opacity:1;stroke-miterlimit:10;" d="M 316.132812 282.114063 L 163.085938 350.160938 L 10 282.114063 L 163.085938 214.10625 Z M 316.132812 282.114063 " transform="matrix(0.1,0,0,-0.1,0,36.02)"/>
</g>
<path style=" stroke:none;fill-rule:nonzero;fill:rgb(68.554688%,68.554688%,68.554688%);fill-opacity:1;" d="M 17.839844 8.488281 C 18.683594 8.113281 18.683594 7.503906 17.839844 7.128906 C 16.992188 6.75 15.621094 6.75 14.777344 7.128906 C 13.929688 7.503906 13.929688 8.113281 14.777344 8.488281 C 15.621094 8.863281 16.992188 8.863281 17.839844 8.488281 "/>
<path style=" stroke:none;fill-rule:nonzero;fill:rgb(68.554688%,68.554688%,68.554688%);fill-opacity:1;" d="M 24.671875 6.8125 C 24.292969 6.179688 23.546875 5.582031 22.429688 5.085938 C 21.316406 4.589844 19.96875 4.257812 18.546875 4.089844 L 16.980469 6.691406 C 17.40625 6.742188 17.808594 6.84375 18.144531 6.992188 C 18.476562 7.140625 18.703125 7.320312 18.816406 7.507812 L 24.671875 6.8125 "/>
<path style=" stroke:none;fill-rule:nonzero;fill:rgb(68.554688%,68.554688%,68.554688%);fill-opacity:1;" d="M 10.183594 5.085938 C 7.917969 6.09375 7.171875 7.519531 7.941406 8.804688 L 13.796875 8.105469 C 13.566406 7.722656 13.789062 7.292969 14.46875 6.992188 L 10.183594 5.085938 "/>
<path style=" stroke:none;fill-rule:nonzero;fill:rgb(68.554688%,68.554688%,68.554688%);fill-opacity:1;" d="M 14.066406 11.527344 C 16.953125 11.867188 20.164062 11.535156 22.429688 10.527344 L 18.144531 8.625 C 17.464844 8.925781 16.5 9.027344 15.636719 8.921875 L 14.066406 11.527344 "/>
<path style=" stroke:none;fill-rule:nonzero;fill:rgb(10.009766%,10.009766%,10.009766%);fill-opacity:1;" d="M 1 7.808594 L 1 28.21875 L 16.308594 35.019531 L 16.308594 14.609375 L 1 7.808594 "/>
<g clip-path="url(#clip3)" clip-rule="nonzero">
<path style="fill:none;stroke-width:20;stroke-linecap:round;stroke-linejoin:round;stroke:rgb(0%,0%,0%);stroke-opacity:1;stroke-miterlimit:10;" d="M 10 282.114063 L 10 78.0125 L 163.085938 10.004688 L 163.085938 214.10625 Z M 10 282.114063 " transform="matrix(0.1,0,0,-0.1,0,36.02)"/>
</g>
<path style=" stroke:none;fill-rule:nonzero;fill:rgb(45.996094%,45.996094%,45.996094%);fill-opacity:1;" d="M 10.183594 22.09375 C 10.183594 20.96875 9.5 19.75 8.652344 19.371094 C 7.808594 18.996094 7.121094 19.605469 7.121094 20.734375 C 7.121094 21.859375 7.808594 23.078125 8.652344 23.453125 C 9.5 23.832031 10.183594 23.222656 10.183594 22.09375 "/>
<path style=" stroke:none;fill-rule:nonzero;fill:rgb(45.996094%,45.996094%,45.996094%);fill-opacity:1;" d="M 11.714844 15.703125 C 10.816406 14.609375 9.769531 13.746094 8.652344 13.25 C 7.539062 12.753906 6.492188 12.6875 5.59375 12.980469 L 7.734375 18.882812 C 8.003906 18.796875 8.320312 18.816406 8.652344 18.964844 C 8.988281 19.113281 9.300781 19.371094 9.574219 19.699219 L 11.714844 15.703125 "/>
<path style=" stroke:none;fill-rule:nonzero;fill:rgb(45.996094%,45.996094%,45.996094%);fill-opacity:1;" d="M 2.53125 18.691406 C 2.53125 21.714844 3.761719 24.898438 5.59375 27.125 L 7.734375 23.125 C 7.1875 22.460938 6.816406 21.503906 6.816406 20.597656 L 2.53125 18.691406 "/>
<path style=" stroke:none;fill-rule:nonzero;fill:rgb(45.996094%,45.996094%,45.996094%);fill-opacity:1;" d="M 11.714844 29.847656 C 13.546875 29.246094 14.777344 27.15625 14.777344 24.136719 L 10.488281 22.230469 C 10.488281 23.136719 10.121094 23.765625 9.574219 23.945312 L 11.714844 29.847656 "/>
</g>
</svg>
