<?xml version="1.0" encoding="UTF-8"?>
<svg xmlns="http://www.w3.org/2000/svg" xmlns:xlink="http://www.w3.org/1999/xlink" width="32.61pt" height="36.02pt" viewBox="0 0 32.61 36.02" version="1.1">
<defs>
<clipPath id="clip1">
  <path d="M 15 6 L 32.609375 6 L 32.609375 36.019531 L 15 36.019531 Z M 15 6 "/>
</clipPath>
<clipPath id="clip2">
  <path d="M 0 0 L 32.609375 0 L 32.609375 16 L 0 16 Z M 0 0 "/>
</clipPath>
<clipPath id="clip3">
  <path d="M 0 6 L 18 6 L 18 36.019531 L 0 36.019531 Z M 0 6 "/>
</clipPath>
</defs>
<g id="surface1">
<path style=" stroke:none;fill-rule:nonzero;fill:rgb(35.009766%,35.009766%,35.009766%);fill-opacity:1;" d="M 16.308594 35.019531 L 31.613281 28.21875 L 31.613281 7.808594 L 16.308594 14.609375 L 16.308594 35.019531 "/>
<g clip-path="url(#clip1)" clip-rule="nonzero">
<path style="fill:none;stroke-width:20;stroke-linecap:round;stroke-linejoin:round;stroke:rgb(0%,0%,0%);stroke-opacity:1;stroke-miterlimit:10;" d="M 163.085938 10.004688 L 316.132812 78.0125 L 316.132812 282.114063 L 163.085938 214.10625 Z M 163.085938 10.004688 " transform="matrix(0.1,0,0,-0.1,0,36.02)"/>
</g>
<path style=" stroke:none;fill-rule:nonzero;fill:rgb(54.492188%,54.492188%,54.492188%);fill-opacity:1;" d="M 19.675781 17.523438 C 19.246094 19.425781 18.816406 21.414062 18.390625 23.398438 C 18.574219 25.523438 18.941406 27.5625 18.757812 29.929688 C 18.757812 30.585938 18.757812 31.238281 18.757812 31.808594 L 19.429688 30.367188 C 19.734375 28.761719 20.53125 26.9375 21.082031 25.222656 L 23.285156 22.609375 C 22.492188 23.292969 21.328125 23.644531 20.46875 24.269531 C 20.46875 24.269531 19.859375 27.074219 19.613281 26.773438 C 19.492188 25.605469 19.308594 24.542969 19.246094 23.425781 L 19.183594 22.71875 C 19.550781 21.167969 19.980469 19.753906 20.410156 18.257812 L 19.675781 17.523438 "/>
<path style=" stroke:none;fill-rule:nonzero;fill:rgb(54.492188%,54.492188%,54.492188%);fill-opacity:1;" d="M 19.675781 17.523438 C 20.59375 16.542969 21.632812 15.671875 22.550781 14.855469 C 23.285156 14.285156 23.960938 13.332031 24.632812 13.195312 C 25.492188 13.875 26.410156 14.449219 27.207031 15.238281 C 27.941406 16.296875 28.734375 17.332031 29.472656 18.476562 C 29.472656 20.027344 29.472656 21.578125 29.472656 23.128906 C 29.410156 23.5625 29.59375 24.054688 29.347656 24.488281 C 27.757812 25.441406 26.164062 26.3125 24.511719 27.292969 C 23.46875 27.835938 22.675781 29.25 21.695312 30.175781 C 20.714844 30.773438 19.734375 31.292969 18.757812 31.808594 L 19.429688 30.367188 C 20.777344 28.789062 21.941406 26.636719 23.285156 25.386719 C 25.0625 23.535156 26.898438 21.578125 28.734375 19.699219 C 28.980469 19.265625 28.0625 20.160156 27.816406 20.269531 C 25.550781 21.847656 23.347656 23.5625 21.082031 25.222656 L 23.285156 22.609375 C 21.941406 22.882812 20.59375 23.15625 19.246094 23.425781 L 19.183594 22.71875 C 20.59375 22.421875 22 21.875 23.410156 21.660156 C 23.410156 20.761719 23.164062 20.054688 23.101562 19.183594 C 22.980469 18.421875 23.042969 17.496094 22.125 17.820312 C 21.574219 17.984375 20.960938 17.929688 20.410156 18.257812 L 19.675781 17.523438 "/>
<path style="fill:none;stroke-width:1.2;stroke-linecap:round;stroke-linejoin:round;stroke:rgb(54.492188%,54.492188%,54.492188%);stroke-opacity:1;stroke-miterlimit:10;" d="M 187.578125 42.114063 L 194.296875 56.528125 " transform="matrix(0.1,0,0,-0.1,0,36.02)"/>
<path style="fill:none;stroke-width:1.2;stroke-linecap:round;stroke-linejoin:round;stroke:rgb(54.492188%,54.492188%,54.492188%);stroke-opacity:1;stroke-miterlimit:10;" d="M 210.820312 107.973438 L 232.851562 134.10625 " transform="matrix(0.1,0,0,-0.1,0,36.02)"/>
<path style="fill:none;stroke-width:1.2;stroke-linecap:round;stroke-linejoin:round;stroke:rgb(54.492188%,54.492188%,54.492188%);stroke-opacity:1;stroke-miterlimit:10;" d="M 192.460938 125.942188 L 191.835938 133.0125 " transform="matrix(0.1,0,0,-0.1,0,36.02)"/>
<path style="fill:none;stroke-width:1.2;stroke-linecap:round;stroke-linejoin:round;stroke:rgb(54.492188%,54.492188%,54.492188%);stroke-opacity:1;stroke-miterlimit:10;" d="M 204.101562 177.621875 L 196.757812 184.965625 " transform="matrix(0.1,0,0,-0.1,0,36.02)"/>
<path style=" stroke:none;fill-rule:nonzero;fill:rgb(65.039062%,65.039062%,65.039062%);fill-opacity:1;" d="M 31.613281 7.808594 L 16.308594 1.003906 L 1 7.808594 L 16.308594 14.609375 L 31.613281 7.808594 "/>
<g clip-path="url(#clip2)" clip-rule="nonzero">
<path style="fill:none;stroke-width:20;stroke-linecap:round;stroke-linejoin:round;stroke:rgb(0%,0%,0%);stroke-opacity:1;stroke-miterlimit:10;" d="M 316.132812 282.114063 L 163.085938 350.160938 L 10 282.114063 L 163.085938 214.10625 Z M 316.132812 282.114063 " transform="matrix(0.1,0,0,-0.1,0,36.02)"/>
</g>
<path style=" stroke:none;fill-rule:nonzero;fill:rgb(82.421875%,82.421875%,82.421875%);fill-opacity:1;" d="M 16.367188 3.96875 C 14.652344 4.351562 12.878906 4.757812 11.101562 5.167969 C 9.632812 5.984375 8.347656 6.882812 6.449219 7.5625 C 5.960938 7.78125 5.46875 7.996094 5.039062 8.1875 L 6.570312 8.105469 C 7.980469 7.753906 9.878906 7.617188 11.53125 7.371094 L 14.960938 7.808594 C 13.917969 7.5625 12.878906 6.992188 11.835938 6.691406 C 11.835938 6.691406 9.328125 7.261719 9.386719 7.019531 C 10.183594 6.554688 10.859375 6.09375 11.652344 5.683594 L 12.144531 5.414062 C 13.550781 5.113281 14.898438 4.894531 16.308594 4.652344 L 16.367188 3.96875 "/>
<path style=" stroke:none;fill-rule:nonzero;fill:rgb(82.421875%,82.421875%,82.421875%);fill-opacity:1;" d="M 16.367188 3.96875 C 17.714844 4.1875 19.0625 4.515625 20.285156 4.785156 C 21.207031 5.03125 22.367188 5.113281 22.917969 5.46875 C 22.980469 6.203125 23.164062 6.9375 23.101562 7.671875 C 22.796875 8.460938 22.550781 9.277344 22.183594 10.09375 C 21.023438 10.609375 19.859375 11.128906 18.695312 11.644531 C 18.328125 11.753906 18.082031 12.027344 17.59375 12.027344 C 15.816406 11.398438 14.101562 10.746094 12.265625 10.09375 C 11.164062 9.65625 9.570312 9.65625 8.226562 9.386719 C 7.121094 9.003906 6.082031 8.597656 5.039062 8.1875 L 6.570312 8.105469 C 8.652344 8.378906 11.042969 8.351562 12.878906 8.734375 C 15.449219 9.167969 18.144531 9.605469 20.777344 10.066406 C 21.265625 10.066406 19.980469 9.820312 19.734375 9.710938 C 17.042969 8.894531 14.285156 8.160156 11.53125 7.371094 L 14.960938 7.808594 C 13.859375 7.101562 12.757812 6.390625 11.652344 5.683594 L 12.144531 5.414062 C 13.304688 6.148438 14.652344 6.800781 15.757812 7.5625 C 16.429688 7.261719 16.796875 6.882812 17.410156 6.554688 C 17.898438 6.230469 18.632812 5.957031 17.777344 5.523438 C 17.285156 5.25 16.917969 4.867188 16.308594 4.652344 L 16.367188 3.96875 "/>
<path style="fill:none;stroke-width:1.2;stroke-linecap:round;stroke-linejoin:round;stroke:rgb(82.421875%,82.421875%,82.421875%);stroke-opacity:1;stroke-miterlimit:10;" d="M 50.390625 278.325 L 65.703125 279.145313 " transform="matrix(0.1,0,0,-0.1,0,36.02)"/>
<path style="fill:none;stroke-width:1.2;stroke-linecap:round;stroke-linejoin:round;stroke:rgb(82.421875%,82.421875%,82.421875%);stroke-opacity:1;stroke-miterlimit:10;" d="M 115.3125 286.489063 L 149.609375 282.114063 " transform="matrix(0.1,0,0,-0.1,0,36.02)"/>
<path style="fill:none;stroke-width:1.2;stroke-linecap:round;stroke-linejoin:round;stroke:rgb(82.421875%,82.421875%,82.421875%);stroke-opacity:1;stroke-miterlimit:10;" d="M 116.523438 303.364063 L 121.445312 306.059375 " transform="matrix(0.1,0,0,-0.1,0,36.02)"/>
<path style="fill:none;stroke-width:1.2;stroke-linecap:round;stroke-linejoin:round;stroke:rgb(82.421875%,82.421875%,82.421875%);stroke-opacity:1;stroke-miterlimit:10;" d="M 163.085938 313.676563 L 163.671875 320.5125 " transform="matrix(0.1,0,0,-0.1,0,36.02)"/>
<path style=" stroke:none;fill-rule:nonzero;fill:rgb(50%,50%,50%);fill-opacity:1;" d="M 1 7.808594 L 1 28.21875 L 16.308594 35.019531 L 16.308594 14.609375 L 1 7.808594 "/>
<g clip-path="url(#clip3)" clip-rule="nonzero">
<path style="fill:none;stroke-width:20;stroke-linecap:round;stroke-linejoin:round;stroke:rgb(0%,0%,0%);stroke-opacity:1;stroke-miterlimit:10;" d="M 10 282.114063 L 10 78.0125 L 163.085938 10.004688 L 163.085938 214.10625 Z M 10 282.114063 " transform="matrix(0.1,0,0,-0.1,0,36.02)"/>
</g>
<path style=" stroke:none;fill-rule:nonzero;fill:rgb(69.921875%,69.921875%,69.921875%);fill-opacity:1;" d="M 4.367188 13.710938 C 3.9375 15.238281 3.511719 16.84375 3.082031 18.449219 C 3.265625 20.734375 3.632812 23.101562 3.449219 25.304688 C 3.449219 25.957031 3.449219 26.613281 3.449219 27.183594 L 4.121094 26.339844 C 4.429688 25.007812 5.226562 23.890625 5.777344 22.664062 L 7.980469 22.011719 C 7.183594 21.984375 6.019531 21.304688 5.164062 21.167969 C 5.164062 21.167969 4.550781 23.425781 4.304688 22.910156 C 4.183594 21.632812 4 20.40625 3.9375 19.238281 L 3.878906 18.476562 C 4.246094 17.25 4.675781 16.214844 5.101562 15.101562 L 4.367188 13.710938 "/>
<path style=" stroke:none;fill-rule:nonzero;fill:rgb(69.921875%,69.921875%,69.921875%);fill-opacity:1;" d="M 4.367188 13.710938 C 5.285156 13.550781 6.328125 13.605469 7.246094 13.605469 C 7.980469 13.683594 8.652344 13.332031 9.328125 13.792969 C 10.183594 15.238281 11.101562 16.625 11.898438 18.121094 C 12.632812 19.835938 13.429688 21.578125 14.164062 23.375 C 14.164062 24.925781 14.164062 26.476562 14.164062 28.027344 C 14.101562 28.40625 14.285156 29.0625 14.042969 29.277344 C 12.449219 28.816406 10.859375 28.269531 9.203125 27.78125 C 8.164062 27.402344 7.367188 28.109375 6.386719 28.164062 C 5.410156 27.890625 4.429688 27.535156 3.449219 27.183594 L 4.121094 26.339844 C 5.46875 25.957031 6.632812 24.84375 7.980469 24.789062 C 9.753906 24.515625 11.59375 24.191406 13.429688 23.945312 C 13.675781 23.726562 12.757812 23.808594 12.511719 23.699219 C 10.246094 23.265625 8.042969 23.019531 5.777344 22.664062 L 7.980469 22.011719 C 6.632812 21.085938 5.285156 20.160156 3.9375 19.238281 L 3.878906 18.476562 C 5.285156 19.425781 6.695312 20.136719 8.101562 21.167969 C 8.101562 20.269531 7.855469 19.34375 7.796875 18.421875 C 7.675781 17.550781 7.734375 16.679688 6.816406 16.1875 C 6.265625 15.863281 5.652344 15.265625 5.101562 15.101562 L 4.367188 13.710938 "/>
<path style="fill:none;stroke-width:1.2;stroke-linecap:round;stroke-linejoin:round;stroke:rgb(69.921875%,69.921875%,69.921875%);stroke-opacity:1;stroke-miterlimit:10;" d="M 34.492188 88.364063 L 41.210938 96.801563 " transform="matrix(0.1,0,0,-0.1,0,36.02)"/>
<path style="fill:none;stroke-width:1.2;stroke-linecap:round;stroke-linejoin:round;stroke:rgb(69.921875%,69.921875%,69.921875%);stroke-opacity:1;stroke-miterlimit:10;" d="M 57.773438 133.559375 L 79.804688 140.082813 " transform="matrix(0.1,0,0,-0.1,0,36.02)"/>
<path style="fill:none;stroke-width:1.2;stroke-linecap:round;stroke-linejoin:round;stroke:rgb(69.921875%,69.921875%,69.921875%);stroke-opacity:1;stroke-miterlimit:10;" d="M 39.375 167.817188 L 38.789062 175.434375 " transform="matrix(0.1,0,0,-0.1,0,36.02)"/>
<path style="fill:none;stroke-width:1.2;stroke-linecap:round;stroke-linejoin:round;stroke:rgb(69.921875%,69.921875%,69.921875%);stroke-opacity:1;stroke-miterlimit:10;" d="M 51.015625 209.184375 L 43.671875 223.090625 " transform="matrix(0.1,0,0,-0.1,0,36.02)"/>
</g>
</svg>
