<?xml version="1.0" encoding="UTF-8"?>
<svg xmlns="http://www.w3.org/2000/svg" xmlns:xlink="http://www.w3.org/1999/xlink" width="32.61pt" height="36.02pt" viewBox="0 0 32.61 36.02" version="1.1">
<defs>
<clipPath id="clip1">
  <path d="M 15 6 L 32.609375 6 L 32.609375 36.019531 L 15 36.019531 Z M 15 6 "/>
</clipPath>
<clipPath id="clip2">
  <path d="M 0 0 L 32.609375 0 L 32.609375 16 L 0 16 Z M 0 0 "/>
</clipPath>
<clipPath id="clip3">
  <path d="M 0 6 L 18 6 L 18 36.019531 L 0 36.019531 Z M 0 6 "/>
</clipPath>
</defs>
<g id="surface1">
<path style=" stroke:none;fill-rule:nonzero;fill:rgb(0%,69.921875%,0%);fill-opacity:1;" d="M 16.308594 35.019531 L 31.613281 28.21875 L 31.613281 7.808594 L 16.308594 14.609375 L 16.308594 35.019531 "/>
<g clip-path="url(#clip1)" clip-rule="nonzero">
<path style="fill:none;stroke-width:20;stroke-linecap:round;stroke-linejoin:round;stroke:rgb(0%,0%,0%);stroke-opacity:1;stroke-miterlimit:10;" d="M 163.085938 10.004688 L 316.132812 78.0125 L 316.132812 282.114063 L 163.085938 214.10625 Z M 163.085938 10.004688 " transform="matrix(0.1,0,0,-0.1,0,36.02)"/>
</g>
<path style=" stroke:none;fill-rule:nonzero;fill:rgb(30.004883%,78.90625%,30.004883%);fill-opacity:1;" d="M 17.839844 15.972656 C 17.960938 17.792969 18.265625 19.535156 18.878906 20.976562 C 19.367188 22.148438 20.347656 22.9375 21.574219 22.394531 C 22.125 22.148438 21.816406 21.222656 21.695312 20.707031 C 21.511719 19.808594 21.265625 19.101562 20.960938 18.339844 C 21.878906 19.480469 22.613281 20.871094 23.164062 22.421875 C 23.839844 24.242188 23.839844 26.691406 23.960938 29.007812 C 24.144531 29.984375 25.308594 28.734375 25 27.890625 C 25.0625 26.964844 24.941406 26.203125 24.878906 25.332031 C 25.0625 23.699219 25.796875 21.984375 26.410156 20.40625 C 26.839844 19.398438 27.328125 18.367188 28 17.496094 C 27.390625 18.664062 26.839844 20.054688 26.839844 21.277344 C 27.757812 20.953125 28.675781 19.808594 29.164062 18.527344 C 29.777344 16.871094 29.960938 15.15625 30.082031 13.46875 C 28.675781 14.257812 27.144531 15.265625 26.042969 16.976562 C 25.308594 18.121094 25.0625 19.617188 25.308594 20.652344 C 25 21.359375 24.632812 21.929688 24.511719 22.636719 C 24.265625 21.929688 24.082031 21.03125 23.714844 20.460938 C 23.839844 19.753906 23.898438 18.828125 23.777344 18.066406 C 23.65625 16.324219 22.613281 15.480469 21.449219 15.425781 C 20.285156 15.289062 19.0625 15.589844 17.839844 15.972656 "/>
<path style=" stroke:none;fill-rule:nonzero;fill:rgb(30.004883%,100%,30.004883%);fill-opacity:1;" d="M 31.613281 7.808594 L 16.308594 1.003906 L 1 7.808594 L 16.308594 14.609375 L 31.613281 7.808594 "/>
<g clip-path="url(#clip2)" clip-rule="nonzero">
<path style="fill:none;stroke-width:20;stroke-linecap:round;stroke-linejoin:round;stroke:rgb(0%,0%,0%);stroke-opacity:1;stroke-miterlimit:10;" d="M 316.132812 282.114063 L 163.085938 350.160938 L 10 282.114063 L 163.085938 214.10625 Z M 316.132812 282.114063 " transform="matrix(0.1,0,0,-0.1,0,36.02)"/>
</g>
<path style=" stroke:none;fill-rule:nonzero;fill:rgb(65.039062%,100%,65.039062%);fill-opacity:1;" d="M 16.308594 2.363281 C 15.019531 3.046875 13.917969 3.808594 13.246094 4.652344 C 12.695312 5.332031 12.757812 6.175781 13.980469 6.71875 C 14.53125 6.964844 15.019531 6.472656 15.328125 6.230469 C 15.878906 5.820312 16.246094 5.441406 16.613281 5.003906 C 16.367188 5.929688 15.816406 6.828125 15.019531 7.671875 C 14.101562 8.679688 12.265625 9.496094 10.613281 10.339844 C 10 10.773438 11.714844 11.046875 12.144531 10.582031 C 12.878906 10.3125 13.367188 9.984375 13.980469 9.65625 C 15.328125 9.222656 17.101562 9.085938 18.695312 8.921875 C 19.734375 8.839844 20.839844 8.789062 21.941406 8.894531 C 20.65625 8.921875 19.246094 9.058594 18.328125 9.46875 C 19.183594 9.902344 20.65625 10.066406 21.941406 9.929688 C 23.59375 9.738281 25 9.277344 26.347656 8.789062 C 24.816406 8.214844 23.042969 7.644531 21.023438 7.5625 C 19.675781 7.507812 18.390625 7.863281 17.777344 8.351562 C 17.042969 8.40625 16.367188 8.378906 15.757812 8.542969 C 16.125 8.160156 16.675781 7.753906 16.859375 7.34375 C 17.46875 7.179688 18.207031 6.910156 18.695312 6.582031 C 19.917969 5.929688 19.859375 5.03125 19.125 4.324219 C 18.449219 3.589844 17.410156 2.964844 16.308594 2.363281 "/>
<path style=" stroke:none;fill-rule:nonzero;fill:rgb(0%,100%,0%);fill-opacity:1;" d="M 1 7.808594 L 1 28.21875 L 16.308594 35.019531 L 16.308594 14.609375 L 1 7.808594 "/>
<g clip-path="url(#clip3)" clip-rule="nonzero">
<path style="fill:none;stroke-width:20;stroke-linecap:round;stroke-linejoin:round;stroke:rgb(0%,0%,0%);stroke-opacity:1;stroke-miterlimit:10;" d="M 10 282.114063 L 10 78.0125 L 163.085938 10.004688 L 163.085938 214.10625 Z M 10 282.114063 " transform="matrix(0.1,0,0,-0.1,0,36.02)"/>
</g>
<path style=" stroke:none;fill-rule:nonzero;fill:rgb(39.988708%,100%,39.988708%);fill-opacity:1;" d="M 2.53125 10.527344 C 2.652344 12.460938 2.960938 14.472656 3.570312 16.460938 C 4.0625 18.066406 5.042969 19.726562 6.265625 20.269531 C 6.816406 20.515625 6.511719 19.320312 6.386719 18.691406 C 6.203125 17.632812 5.960938 16.707031 5.652344 15.671875 C 6.570312 17.632812 7.304688 19.671875 7.855469 21.714844 C 8.53125 24.136719 8.53125 26.585938 8.652344 29.007812 C 8.835938 30.148438 10 29.929688 9.695312 28.816406 C 9.753906 27.945312 9.632812 27.074219 9.570312 26.148438 C 9.753906 24.679688 10.488281 23.617188 11.101562 22.582031 C 11.53125 21.957031 12.019531 21.359375 12.695312 21.085938 C 12.082031 21.714844 11.53125 22.609375 11.53125 23.835938 C 12.449219 24.324219 13.367188 24 13.859375 23.15625 C 14.46875 22.039062 14.652344 20.488281 14.777344 18.910156 C 13.367188 18.449219 11.835938 18.09375 10.734375 18.828125 C 10 19.320312 9.753906 20.597656 10 21.847656 C 9.695312 22.285156 9.328125 22.53125 9.203125 23.128906 C 8.960938 22.203125 8.777344 21.140625 8.410156 20.242188 C 8.53125 19.644531 8.59375 18.773438 8.46875 17.902344 C 8.347656 16.054688 7.304688 14.285156 6.144531 13.195312 C 4.980469 12.027344 3.753906 11.234375 2.53125 10.527344 "/>
</g>
</svg>
